PathFileType	4	(X/Y/Z)	s09c0203.trc
DataRate	CameraRate	NumFrames	NumMarkers	Units	OrigDataRate	OrigDataStartFrame	OrigNumFrames
200	200	4	50	mm	200	1500	2000
Frame#	Time	racr			lacr			c7			jug			rlel			rdr			llel			ldr			s2			lic			ric			lasi			rasi			rpsi			lpsi			rgt			lgt			rth1			rth2			rth3			rth4			rlfc			rmfc			rsh1			rsh2			rsh3			rsh4			rlmal			rmmal			rcal			rtoe			rmt5			lth1			lth2			lth4			lth3			llfc			lmfc			llmal			lmmal			lcal			lmt5			lsh1			lsh2			lsh3			lsh4			ltoe			SBIKE			LBIKE			RBIKE			
		X1	Y1	Z1	X2	Y2	Z2	X3	Y3	Z3	X4	Y4	Z4	X5	Y5	Z5	X6	Y6	Z6	X7	Y7	Z7	X8	Y8	Z8	X9	Y9	Z9	X10	Y10	Z10	X11	Y11	Z11	X12	Y12	Z12	X13	Y13	Z13	X14	Y14	Z14	X15	Y15	Z15	X16	Y16	Z16	X17	Y17	Z17	X18	Y18	Z18	X19	Y19	Z19	X20	Y20	Z20	X21	Y21	Z21	X22	Y22	Z22	X23	Y23	Z23	X24	Y24	Z24	X25	Y25	Z25	X26	Y26	Z26	X27	Y27	Z27	X28	Y28	Z28	X29	Y29	Z29	X30	Y30	Z30	X31	Y31	Z31	X32	Y32	Z32	X33	Y33	Z33	X34	Y34	Z34	X35	Y35	Z35	X36	Y36	Z36	X37	Y37	Z37	X38	Y38	Z38	X39	Y39	Z39	X40	Y40	Z40	X41	Y41	Z41	X42	Y42	Z42	X43	Y43	Z43	X44	Y44	Z44	X45	Y45	Z45	X46	Y46	Z46	X47	Y47	Z47	X48	Y48	Z48	X49	Y49	Z49	X50	Y50	Z50	
1500	7.5000	518.557946	1217.414129	-68.497028	477.043726	1205.719207	-424.250604	494.699344	1293.201996	-240.776144	457.887149	1161.237175	-240.133221	491.682587	1013.634086	83.978500	682.776667	905.883663	-19.599282	419.680654	944.147375	-517.171468	659.291376	904.054683	-447.001719	5.662653	1110.132379	-182.342228	121.591022	1140.214774	-345.665688	158.658389	1095.231283	-47.125613	173.079115	1087.126041	-330.256487	202.714744	1050.661002	-80.135065	40.470089	1133.019903	-122.225321	26.677965	1154.527973	-227.830766	135.017831	944.127185	-26.909247	115.862945	1038.659457	-394.839383	211.073031	834.321775	-42.387993	271.572665	771.860045	-56.630770	286.811739	685.866864	-72.568995	298.458059	787.890522	-76.905096	322.018745	600.278092	-106.316323	292.648043	577.579625	-200.550524	286.707540	505.025651	-69.204533	298.195073	416.848459	-82.804372	265.383026	335.658653	-78.895011	320.492879	416.817587	-115.796278	248.868115	231.634445	-74.724299	243.908485	243.139040	-151.999203	173.726235	198.351145	-109.385007	436.891185	176.409238	-133.267661	357.588871	162.645243	-62.540504	247.526806	981.640793	-402.430274	331.456066	971.675827	-392.460213	343.125758	998.523432	-367.134449	405.190491	919.255360	-400.107440	476.476790	845.165895	-386.860999	485.173387	817.909592	-288.879982	202.062408	606.862636	-409.032849	213.925260	604.923302	-334.969458	117.970135	606.984412	-370.281177	243.100280	481.552773	-429.271202	404.895467	780.834519	-411.661817	353.590996	710.643365	-405.565433	272.107227	675.133285	-407.336668	371.576845	690.326731	-377.810333	327.544274	452.665505	-359.440010	-64.307489	851.308258	-237.980473	21.194838	84.859454	-442.059497	21.211112	84.018179	-43.656944	
1501	7.5050	520.554752	1215.681081	-70.719216	474.277172	1207.385360	-427.356249	494.416617	1292.791415	-242.278555	457.525883	1161.045533	-242.240052	493.300949	1013.213598	82.388755	683.917728	906.175818	-19.792764	419.865016	944.061608	-517.915648	659.281071	904.069602	-446.542009	6.114010	1110.566424	-178.138140	119.910020	1141.860804	-343.646382	161.607019	1093.703266	-46.308704	171.405013	1088.460801	-329.762982	204.564476	1049.296448	-80.632372	42.277955	1132.636877	-119.099768	26.297410	1154.847379	-224.740499	137.735741	943.109315	-25.426382	113.995010	1041.857716	-393.882428	211.800341	834.363504	-42.554052	271.536769	771.424600	-56.692273	285.834591	685.064420	-72.707682	298.358676	786.947414	-77.745994	319.703851	598.726199	-106.585677	287.964129	577.014777	-200.721073	283.190959	503.886084	-69.393644	293.405790	415.619625	-83.074018	259.545337	334.975347	-78.981736	315.569819	415.305475	-116.177288	241.448089	231.311659	-74.678726	236.883609	242.541173	-152.017847	165.377327	199.726126	-109.327194	428.156999	170.484632	-133.208186	348.439115	159.132895	-62.614720	246.434192	987.942014	-401.686079	330.519713	979.263198	-391.629427	341.516332	1005.877690	-365.626801	404.901735	928.719209	-400.537256	477.853151	854.961862	-387.912722	487.927530	827.252748	-289.954461	209.021049	609.589559	-409.431130	220.950391	609.627336	-334.945835	124.649062	607.984384	-370.741943	252.714726	485.532782	-429.522608	407.734353	789.173083	-412.399466	358.049883	717.677602	-406.569383	277.461620	680.125435	-408.011945	376.940160	697.660502	-379.168517	337.764886	458.580854	-359.688281	-64.378165	851.280512	-238.128065	21.198122	84.816123	-442.067636	21.239684	84.035281	-43.671591	
1502	7.5100	522.529757	1214.315878	-73.238009	471.667033	1208.997845	-430.337871	494.900899	1292.364916	-244.382448	456.780450	1161.168045	-244.475470	494.738328	1012.830735	80.758228	684.799824	906.344849	-19.518314	420.077813	944.194569	-518.721724	659.292588	904.020531	-446.330404	6.583663	1110.666229	-175.151995	118.262799	1143.589029	-341.767513	164.277912	1092.465836	-45.782570	169.637627	1089.750274	-329.374693	206.208029	1048.228204	-81.162691	43.936057	1132.552274	-116.412981	25.635563	1156.023442	-220.768132	140.340955	942.402695	-24.562709	112.244065	1044.979806	-392.766164	212.637257	834.614836	-42.770113	271.826084	771.342865	-56.959717	285.454841	684.781338	-72.813478	298.405848	786.496489	-78.694398	318.067378	597.334076	-106.494449	285.777478	576.556824	-201.092924	280.225738	503.395126	-69.666423	289.080599	415.025567	-83.457826	254.041669	334.780022	-79.171644	311.065811	414.225147	-116.601566	234.144636	231.711065	-74.708640	230.056800	242.639484	-152.183398	157.593940	202.375933	-109.441209	419.196706	165.003428	-133.143459	339.235543	156.418309	-62.654850	244.998990	994.043702	-400.946434	328.914759	986.450806	-390.976039	339.689651	1012.783637	-364.280490	404.256308	937.572496	-400.768069	478.669117	864.205053	-388.877257	490.082458	836.056391	-290.854364	215.899194	611.548334	-409.811734	227.282064	612.050798	-335.341331	131.250805	608.148990	-371.245391	262.310609	488.738937	-429.545484	409.996663	796.616932	-413.190194	362.165973	723.856467	-407.504800	282.672721	684.089654	-408.572440	381.732697	704.191473	-380.581578	348.319534	464.214206	-360.154067	-64.446394	851.246504	-238.291159	21.178791	84.769936	-442.083710	21.244927	84.045203	-43.676399	
1503	7.5150	524.421421	1212.788001	-75.842349	469.316484	1210.489389	-433.095450	495.408145	1291.905919	-246.445348	456.133654	1161.248967	-246.801561	495.889503	1012.487308	79.236121	685.561243	906.377860	-18.889276	420.210486	944.400921	-519.648424	659.294578	904.051920	-446.428468	6.573777	1112.381296	-171.257657	116.836647	1145.339656	-340.230166	166.696749	1091.613994	-45.428517	167.926674	1090.962756	-328.918304	207.658339	1047.385037	-81.596741	45.306928	1132.700533	-114.010876	25.577532	1157.103805	-217.268691	142.598121	942.256422	-23.996806	110.494580	1047.844748	-391.415386	213.641483	835.088754	-42.936973	272.482401	771.530051	-57.464589	285.622391	684.834741	-72.999315	298.825045	786.507564	-79.526368	316.113214	596.787383	-107.365230	284.903952	576.654287	-201.598393	277.970817	503.388078	-70.035246	285.179948	414.703925	-83.873730	248.818415	335.279250	-79.413004	307.154557	413.696614	-117.062900	227.070120	232.891496	-74.763163	223.153538	243.484872	-152.332746	149.827361	205.712068	-109.494291	410.039223	160.034523	-133.118017	329.849570	154.074745	-62.699938	243.397712	999.702400	-400.204850	326.898689	993.430475	-390.768004	337.697848	1019.201502	-363.033179	402.922260	945.760459	-401.174422	479.137335	872.985423	-389.837526	491.269688	844.707385	-291.542822	222.628678	612.984691	-410.569115	234.436645	613.771549	-336.270414	137.621565	607.207481	-371.738280	272.148168	491.230331	-429.874844	411.893149	803.152829	-413.951645	366.060464	729.118177	-408.326546	287.620094	687.272472	-409.224152	386.285539	709.792541	-381.639304	358.912827	469.075449	-360.323159	-64.502710	851.211056	-238.443656	21.191018	84.837858	-442.035218	21.245733	84.057634	-43.685262	
